<svg width="128" height="128" viewBox="0 0 128 128" fill="none" xmlns="http://www.w3.org/2000/svg">
<path d="M116 3H12C9.64031 2.97599 7.36747 3.88905 5.68019 5.53883C3.99291 7.18862 3.02901 9.44037 3 11.8V116.22C3.03426 118.576 4.00046 120.823 5.68717 122.468C7.37388 124.114 9.64373 125.024 12 125H116C118.36 125.019 120.631 124.103 122.318 122.452C124.004 120.801 124.968 118.55 125 116.19V11.77C124.958 9.41729 123.989 7.17627 122.304 5.53406C120.618 3.89185 118.353 2.98118 116 3Z" fill="#0076B2"/>
<path d="M21.0601 48.73H39.1701V107H21.0601V48.73ZM30.1201 19.73C32.1973 19.73 34.2277 20.3461 35.9546 21.5003C37.6816 22.6545 39.0274 24.2949 39.8218 26.2141C40.6162 28.1333 40.8236 30.2451 40.4176 32.2821C40.0117 34.3192 39.0106 36.1901 37.5412 37.6582C36.0717 39.1262 34.1999 40.1254 32.1624 40.5295C30.125 40.9335 28.0135 40.7241 26.095 39.9279C24.1766 39.1316 22.5374 37.7842 21.3848 36.0562C20.2323 34.3282 19.6181 32.2971 19.6201 30.22C19.6228 27.437 20.7302 24.7688 22.699 22.8018C24.6679 20.8349 27.3371 19.73 30.1201 19.73ZM50.5301 48.73H67.8901V56.73H68.1301C70.5501 52.15 76.4501 47.32 85.2601 47.32C103.6 47.28 107 59.35 107 75V107H88.8901V78.65C88.8901 71.9 88.7701 63.21 79.4801 63.21C70.1901 63.21 68.6101 70.57 68.6101 78.21V107H50.5301V48.73Z" fill="white"/>
</svg>
