<svg width="206" height="200" viewBox="0 0 206 200" fill="none" xmlns="http://www.w3.org/2000/svg">
<rect x="5" y="3" width="195" height="195" rx="97.5" fill="white"/>
<g clip-path="url(#clip0_38_19)">
<path d="M101.359 -3.30812e-06H102.125C120.599 -3.30812e-06 137.887 5.10833 152.694 14L152.241 13.7417C167.393 22.6295 180.02 35.3222 188.9 50.5917L189.156 51.075C198.128 66.6758 202.832 84.4108 202.785 102.458C202.785 147.508 174.085 185.792 134.17 199.608L133.453 199.825C132.561 200.1 131.616 200.158 130.697 199.994C129.778 199.831 128.91 199.45 128.163 198.883L128.18 198.892C127.638 198.404 127.205 197.806 126.91 197.137C126.614 196.467 126.463 195.742 126.466 195.008V194.892V194.9L126.532 184.683C126.576 178.139 126.598 172.156 126.598 166.733C126.906 163.258 126.45 159.757 125.263 156.481C124.077 153.205 122.188 150.235 119.734 147.783C124.512 147.317 129.245 146.467 133.89 145.242L133.264 145.383C137.695 144.157 141.952 142.359 145.929 140.033L145.673 140.175C149.735 137.934 153.346 134.943 156.319 131.358L156.369 131.3C159.514 127.216 161.863 122.564 163.29 117.592L163.365 117.3C165.182 111.132 166.096 104.728 166.076 98.2917L166.067 97.1583V97.2167L166.076 96.6167C166.088 86.6287 162.351 77.0083 155.619 69.7L155.644 69.725C157.028 66.0583 157.827 61.825 157.827 57.4C157.834 52.1744 156.697 47.0121 154.498 42.2833L154.589 42.5C150.924 41.814 147.138 42.343 143.795 44.0083L143.894 43.9667C139.556 45.568 135.383 47.5943 131.435 50.0167L131.748 49.8333L126.73 53.0333C119.132 50.8333 110.406 49.5667 101.392 49.5667C92.3771 49.5667 83.6509 50.8333 75.3779 53.2L76.0454 53.0333C74.6391 52.0555 72.7686 50.8528 70.4339 49.425C67.0732 47.4987 63.5688 45.8408 59.9526 44.4667L59.4088 44.2833C55.9329 42.4508 51.9578 41.8242 48.0953 42.5L48.2024 42.4833C46.0528 47.1488 44.9471 52.2363 44.9641 57.3833C44.9641 61.8083 45.7634 66.05 47.2301 69.9583L47.1477 69.7167C40.2768 77.1785 36.5396 87.0471 36.7241 97.2417V97.2083L36.7158 98.2917C36.7158 105.033 37.7047 111.55 39.5504 117.683L39.4268 117.208C40.9842 122.567 43.3491 127.225 46.4308 131.317L46.3566 131.208C49.2525 134.799 52.795 137.802 56.7967 140.058L56.978 140.15C60.5377 142.25 64.6659 144.025 69.0084 145.267L69.3874 145.358C73.2273 146.4 77.8252 147.25 82.5303 147.725L82.9093 147.758C79.3579 151.325 76.993 156.092 76.4491 161.408L76.4409 161.508C74.6083 162.401 72.6737 163.062 70.6811 163.475L70.5081 163.508C68.3987 163.933 65.9843 164.175 63.5041 164.175H62.9602H62.985C59.8663 164.106 56.8391 163.096 54.2918 161.275L54.3412 161.308C51.3159 159.185 48.8287 156.37 47.0818 153.092L47.0241 152.967C45.439 150.229 43.2787 147.876 40.6958 146.075L40.6216 146.025C38.7071 144.57 36.5375 143.496 34.2274 142.858L34.0955 142.825L31.4587 142.425C30.1354 142.327 28.8075 142.538 27.5777 143.042L27.6354 143.017C26.9322 143.417 26.7125 143.928 26.9762 144.55C27.2948 145.261 27.693 145.886 28.171 146.425L28.1627 146.417C28.6681 147.017 29.2312 147.544 29.8519 148L29.8766 148.017L30.7995 148.683C33.1314 149.917 35.0514 151.633 36.5099 153.708L36.5428 153.758C38.1166 155.733 39.501 157.967 40.6134 160.358L40.6958 160.558L42.0142 163.625C43.1266 166.975 45.1454 169.775 47.7822 171.8L47.8234 171.833C50.2954 173.783 53.2783 175.183 56.5331 175.817L56.6649 175.833C59.3841 176.367 62.5482 176.7 65.7783 176.767H65.836C66.215 176.778 66.6271 176.783 67.072 176.783C69.2254 176.783 71.3321 176.611 73.3921 176.267L73.1696 176.3L76.2019 175.767C76.2019 179.15 76.2239 183.089 76.2678 187.583C76.3118 192.078 76.3338 194.503 76.3338 194.858V194.975C76.3338 196.517 75.6746 197.9 74.6199 198.858C73.8692 199.426 72.988 199.806 72.0641 199.967C71.1403 200.128 70.192 200.065 69.2968 199.783L69.338 199.792C28.7231 185.717 0.0478516 147.433 0.0478516 102.375C0.0478516 83.475 5.09073 65.7667 13.8993 50.55L13.6356 51.0333C22.4239 35.7095 34.9745 22.9393 50.0729 13.9583L50.5508 13.7C65.7131 4.67288 82.9978 -0.0620778 100.592 -0.00833664H101.4H101.359V-3.30812e-06ZM38.405 147.217C38.6687 146.594 38.3611 146.061 37.4822 145.617C36.6032 145.35 36.0319 145.439 35.7683 145.883C35.5046 146.506 35.8122 147.039 36.6911 147.483C37.4822 148.017 38.0535 147.928 38.405 147.217ZM42.5003 151.758C43.1156 151.314 43.0277 150.603 42.2366 149.625C41.3577 148.825 40.6546 148.692 40.1272 149.225C39.512 149.669 39.5998 150.381 40.3909 151.358C41.2643 152.231 41.9675 152.361 42.5003 151.75V151.758ZM46.4555 157.758C47.2466 157.136 47.2466 156.292 46.4555 155.225C45.7524 154.069 45.0053 153.803 44.2143 154.425C43.4232 154.869 43.4232 155.669 44.2143 156.825C45.0053 157.981 45.7524 158.292 46.4555 157.758ZM51.9928 163.367C52.696 162.656 52.5202 161.811 51.4654 160.833C50.4107 159.767 49.5318 159.633 48.8287 160.433C48.0376 161.144 48.2134 161.989 49.356 162.967C50.4107 164.033 51.2897 164.156 51.9928 163.333V163.367ZM59.5159 166.7C59.7796 165.722 59.2083 165.011 57.802 164.567C56.4836 164.211 55.6486 164.522 55.297 165.5C54.9455 166.478 55.5168 167.144 57.011 167.5C58.3294 168.039 59.1644 167.772 59.5159 166.7ZM67.8301 167.367C67.8301 166.211 67.083 165.722 65.5888 165.9C64.1825 165.9 63.4794 166.389 63.4794 167.367C63.4794 168.522 64.2265 169.011 65.7206 168.833C67.1269 168.839 67.8301 168.344 67.8301 167.367ZM75.4851 166.033C75.3093 165.056 74.5182 164.656 73.1119 164.833C71.7056 165.1 71.0904 165.767 71.2662 166.833C71.442 167.9 72.233 168.256 73.6393 167.9C75.0456 167.544 75.6553 166.922 75.4851 166.033Z" fill="black"/>
</g>
<defs>
<clipPath id="clip0_38_19">
<rect width="206" height="200" fill="white"/>
</clipPath>
</defs>
</svg>
